<svg id="Vrstva_1" data-name="Vrstva 1" xmlns="http://www.w3.org/2000/svg" viewBox="0 0 352.28 357.69"><defs><style>.cls-1{fill:none;}</style></defs><path class="cls-1" d="M245.85,100.19c-.78-6.3,5-21.31,4.71-21.45s-13.88,4.63-22.88,2.45C222.74,80,213.34,73.82,202.32,68c-6.94-3.54-11.89-6.3-16.87-7.41-10-2.24-22.35,3.19-22.32,3.51s18.78,6.9,39.19,21c6.8,4.76,13.4,10.76,13.07,13.18-.4,2.88-3,4.39-13.07,13.22-4.49,3.81-9.66,8.16-15,12.38-6.63,5.35-14,10.84-20.8,15.65-12.28,8.53-21.91,14.29-21.91,14.56,0,.42,9.61-1.65,14.62-3.07,8.57-2.41,16.53-5.39,16.67-5.24S164,172,164.36,172.19s22.72-24.35,38-39.18c12.65-12.25,23.2-22.33,26-21.87,9.7,1.67,25.84,49.07,26.21,49.09s5.1-7.63,3.92-21.27C257.37,126.74,246.83,108.11,245.85,100.19Z"/><path d="M266.54,138.51C265.25,121.37,255,105.3,255,96.73c0-6.19,11.44-32,11.2-32.31s-18.54,7.86-33.65,7.86c-7.51,0-18.76-8-30.25-14.24a69.55,69.55,0,0,0-8.47-3.59,48.92,48.92,0,0,0-10.17-2.67c-6-.58-11.39-.86-18.73,1.37a75.93,75.93,0,0,0-13.57,5.7,80,80,0,0,0-8.65,5.31c-.21.16,18.61,7.8,31.56,15.68C188.62,88,201.11,95.54,201,100.08s-14,14.15-38.78,32.52c-6.33,4.7-17.87,11.74-26.65,17-18.86,11.4-34.36,19.05-34.3,19.42s16.16-1.33,35.42-4.54c16.31-3.08,25.34-6.15,25.61-6s-6.83,13.16-13.5,25.83c-13.37,25.39-31,58.81-30.65,58.94s51.28-64.47,68.83-83.78c5-5.58,10.35-11,15.38-15.78,11.43-11.16,21.43-20.36,23.74-19.07,7.21,4,26.73,53.91,27.15,54S268.12,159.27,266.54,138.51Zm-12,21.72c-.37,0-16.51-47.42-26.21-49.09-2.77-.46-13.32,9.62-26,21.87-15.24,14.83-37.56,39.43-38,39.18s11.79-26.15,11.57-26.4-8.1,2.83-16.67,5.24c-5,1.42-14.62,3.49-14.62,3.07,0-.27,9.63-6,21.91-14.56,6.77-4.81,14.17-10.3,20.8-15.65,5.31-4.22,10.48-8.57,15-12.38,10.11-8.83,12.67-10.34,13.07-13.22.33-2.42-6.27-8.42-13.07-13.18-20.41-14.14-39.15-20.71-39.19-21s12.3-5.75,22.32-3.51c5,1.11,9.93,3.87,16.87,7.41,11,5.85,20.42,12,25.36,13.22,9,2.18,22.54-2.62,22.88-2.45s-5.49,15.15-4.71,21.45c1,7.92,11.52,26.55,12.57,38.77C259.6,152.6,254.87,160.26,254.5,160.23Z"/><path d="M162.2,123.83c3.82-2.55,9-6.49,15.52-11.59,8.45-6.62,13.16-10.48,12.64-11.85-1.88-4.94-14.77-12.16-28.88-19.2-10.51-5.23-21-10.08-25-11.26-9,3.86-21.23,22.26-25.35,34.84,4.78.85,14.47,2,25.67,6C153.23,116.48,161.6,124.23,162.2,123.83Z"/><path d="M222,135.69c-2.49,1-14,11.18-18.43,16.55-.31.39,6.15,5.49,18.43,20.4,7.43,9,13.23,16.76,15.81,21.66a69.67,69.67,0,0,0,10.64-9.7C244.39,172.48,240.3,166,233.77,153,229.14,143.7,224,134.89,222,135.69Z"/><path d="M131.34,145.56c3.47-2.09,3.29-2.19,6.35-4.17,9.46-6.14,15.84-10.6,18.48-12.45.66-.46-12.51-9-25.09-12.25-11.87-3.09-17.71-4.3-22.14-5-3.73,7.86-4.39,21.74-3,32.42C113.59,144.08,116.93,143.66,131.34,145.56Z"/><path d="M197.24,159.21a88.56,88.56,0,0,0-7.73,7.14c-3.51,3.76-6.81,7.86-6.62,8a214.52,214.52,0,0,1,17.45,13.23,237.73,237.73,0,0,1,20,18.52A46.87,46.87,0,0,0,232,198.44c-2.29-4.91-9.13-13.48-16.51-21.74C206.91,167.13,198.16,158.8,197.24,159.21Z"/><path d="M51.31,257.08H65.39c13.08,0,18.28,5.93,18.28,15.24,0,10.26-8.53,15.17-18.2,15.17H60.34l-.07,19.56H50.81ZM65.18,280c5,0,8.81-3,8.81-7.74,0-3-1.74-7.64-8.45-7.64H60.63L60.48,280Z"/><path d="M91.2,257.08h9.25l-.44,50H90.76Z"/><path d="M134.93,256.08c16.17,0,26.79,11.4,26.79,26s-11.63,26-26.79,26-26.79-10.83-26.79-26C108.14,267.48,120.05,256.08,134.93,256.08Zm0,44.48c10.33,0,17.12-8.6,17.12-18.5,0-10.61-6.79-18.48-17.12-18.48-8.38,0-17.12,6.87-17.12,18.48C117.81,293,124.61,300.56,134.93,300.56Z"/><path d="M169.82,258.67l8.6-2.59,23.32,38.27h.14l-.58-37.27h9.25l-.43,48.38-9.32,2.6L178.05,270l-.14.14.72,36.9h-9.24Z"/><path d="M233.59,286.33l-16.53-25.49,8.44-4.76,13.08,21.38,13.57-21.38,8.16,4.68-17,25.28-.29,21h-9.67Zm6.86-44.19h9.75l-10.11,10.11h-6Z"/><path d="M266.51,257.08h15.81c12.06,0,17,6.5,17,14.45,0,6.36-3.82,10.9-9.68,13l14.23,18.63-8.23,4.91-13.87-19.27a3.76,3.76,0,0,0-3.32-1.74h-2.89l-.07,20H266Zm14.88,22.47c2.74,0,8.22-1.24,8.22-7.73,0-4.77-3.75-7.22-8.44-7.22h-5.35l-.15,14.95Z"/></svg>